<svg id="Layer_1" data-name="Layer 1" xmlns="http://www.w3.org/2000/svg" viewBox="0 0 22.16 4.51"><path d="M25,32.86H24l.66-4.26,1.72,2.48,1.73-2.48.66,4.26h-1l-.25-2.07-1.11,1.69-1.1-1.69Z" transform="translate(-23.98 -28.55)"/><path d="M30.5,31.6l.05.22-.5,1H28.94l2.13-4.31,2.14,4.31H32.1l-.49-1,0-.25-.58-1.32Zm-.42-.27h2l.07.75H30Z" transform="translate(-23.98 -28.55)"/><path d="M37.38,28.81v4.25l-2.81-2.48v2.28h-.94V28.6l2.8,2.49V28.81Z" transform="translate(-23.98 -28.55)"/><path d="M39.24,28.81v4.05h-1V28.81Zm-.36,4.05V32h.77a1.74,1.74,0,0,0,.45-.06.91.91,0,0,0,.38-.19.85.85,0,0,0,.26-.35,1.34,1.34,0,0,0,.1-.56,1.29,1.29,0,0,0-.1-.55.88.88,0,0,0-.26-.36,1,1,0,0,0-.38-.19,1.74,1.74,0,0,0-.45-.06h-.77v-.86h.8a2.54,2.54,0,0,1,1.15.24,1.8,1.8,0,0,1,.76.71,2.35,2.35,0,0,1,0,2.15,1.78,1.78,0,0,1-.76.7,2.41,2.41,0,0,1-1.15.25Z" transform="translate(-23.98 -28.55)"/><path d="M43.44,31.6l0,.22-.5,1H41.87L44,28.55l2.14,4.31H45l-.49-1,0-.25L44,30.29ZM43,31.33h2l.07.75H42.94Z" transform="translate(-23.98 -28.55)"/></svg>