<svg id="Layer_1" data-name="Layer 1" xmlns="http://www.w3.org/2000/svg" viewBox="0 0 104.84 21.35"><path d="M5,22.77H.15L3.25,2.63l8.17,11.7,8.2-11.7,3.09,20.14H17.83L16.68,13l-5.26,8L6.18,13Z" transform="translate(-0.15 -2.38)"/><path d="M31,16.82l.22,1-2.39,4.93H23.62L33.7,2.38,43.82,22.77H38.56L36.25,18l.17-1.18L33.7,10.63Zm-2-1.28h9.51l.3,3.53H28.69Z" transform="translate(-0.15 -2.38)"/><path d="M63.53,3.58V23.73L50.26,12v10.8H45.82V2.63L59.06,14.38V3.58Z" transform="translate(-0.15 -2.38)"/><path d="M72.35,3.58V22.77H67.58V3.58Zm-1.7,19.19V18.66h3.62a8.27,8.27,0,0,0,2.12-.27,4.91,4.91,0,0,0,1.81-.91,4.41,4.41,0,0,0,1.25-1.68,6.53,6.53,0,0,0,.47-2.62,6.5,6.5,0,0,0-.47-2.62A4.41,4.41,0,0,0,78.2,8.88,4.76,4.76,0,0,0,76.39,8a8.27,8.27,0,0,0-2.12-.27H70.65V3.58h3.78a12,12,0,0,1,5.46,1.18,8.59,8.59,0,0,1,3.56,3.32,9.89,9.89,0,0,1,1.26,5.1,9.87,9.87,0,0,1-1.26,5.08,8.49,8.49,0,0,1-3.56,3.33,11.82,11.82,0,0,1-5.46,1.18Z" transform="translate(-0.15 -2.38)"/><path d="M92.2,16.82l.22,1L90,22.77H84.79L94.88,2.38,105,22.77H99.73L97.43,18l.17-1.18-2.72-6.22Zm-2-1.28h9.52l.3,3.53H89.87Z" transform="translate(-0.15 -2.38)"/></svg>